<svg width="68" height="69" viewBox="0 0 68 69" fill="none" xmlns="http://www.w3.org/2000/svg">
<g clip-path="url(#clip0)">
<path d="M33.9999 37.1973C27.2982 37.1973 21.8461 31.7451 21.8461 25.0435C21.8461 18.3419 27.2983 12.8896 33.9999 12.8896C40.7015 12.8896 46.1537 18.3419 46.1537 25.0435C46.1537 31.7451 40.7014 37.1973 33.9999 37.1973Z" fill="white"/>
<path d="M33.9999 0.964844C20.2919 0.964844 9.13977 12.3174 9.13977 26.2717C9.13977 34.0771 13.0875 43.551 20.8736 54.4302C26.5716 62.3921 32.1864 68.0704 32.4226 68.3083C32.8569 68.7456 33.4283 68.9648 34.0003 68.9648C34.5558 68.9648 35.1116 68.7579 35.5424 68.3429C35.7792 68.1148 41.4082 62.6665 47.1169 54.8146C54.9093 44.0965 58.8604 34.4933 58.8604 26.2715C58.8601 12.3174 47.7077 0.964844 33.9999 0.964844ZM33.9999 37.197C27.2982 37.197 21.8461 31.7447 21.8461 25.0431C21.8461 18.3415 27.2983 12.8893 33.9999 12.8893C40.7015 12.8893 46.1538 18.3415 46.1538 25.0431C46.1538 31.7447 40.7014 37.197 33.9999 37.197Z" fill="#0046AD"/>
</g>
<defs>
<clipPath id="clip0">
<rect width="68" height="68" fill="white" transform="translate(0 0.964844)"/>
</clipPath>
</defs>
</svg>
