<svg version="1.1" xmlns="http://www.w3.org/2000/svg" xmlns:xlink="http://www.w3.org/1999/xlink">
    <symbol id="logo" viewBox="0 0 217 65">
        <path d="M6.74985 19.5097L8.1783 15.121H15.1232L16.5517 19.5097H20.9122L14.2774 0.263137H9.03349L2.3893 19.5097H6.74985ZM9.21205 11.9445L11.5803 4.66128H11.7306L14.0989 11.9445H9.21205Z" fill="#AD2411"/>
        <path d="M23.2288 19.5097H31.4518C35.7747 19.5097 38.0772 17.2542 38.0772 14.1906C38.0772 11.3431 36.0379 9.62328 33.8482 9.5199V9.33195C35.8499 8.88086 37.3254 7.4618 37.3254 5.19695C37.3254 2.31184 35.1827 0.263137 30.9349 0.263137H23.2288V19.5097ZM27.298 16.1829V11.0705H30.7094C32.6641 11.0705 33.8764 12.1983 33.8764 13.7865C33.8764 15.2337 32.8896 16.1829 30.6154 16.1829H27.298ZM27.298 8.31699V3.55234H30.3898C32.1942 3.55234 33.2186 4.48272 33.2186 5.87358C33.2186 7.39602 31.9781 8.31699 30.3147 8.31699H27.298Z" fill="#AD2411"/>
        <path d="M39.992 3.61813H45.8844V19.5097H49.9066V3.61813H55.799V0.263137H39.992V3.61813Z" fill="#AD2411"/>
        <path d="M75.2358 9.88641C75.2358 3.58993 71.3264 0 66.2234 0C61.0922 0 57.211 3.58993 57.211 9.88641C57.211 16.1547 61.0922 19.7728 66.2234 19.7728C71.3264 19.7728 75.2358 16.1829 75.2358 9.88641ZM71.1102 9.88641C71.1102 13.965 69.1743 16.1735 66.2234 16.1735C63.2631 16.1735 61.3366 13.965 61.3366 9.88641C61.3366 5.8078 63.2631 3.59933 66.2234 3.59933C69.1743 3.59933 71.1102 5.8078 71.1102 9.88641Z" fill="#AD2411"/>
        <path d="M77.207 19.5097H78.2595C82.8926 19.5097 84.3399 16.681 84.6406 10.2247L84.9413 3.52415H90.2698V19.5097H94.2263V0.263137H81.1634L80.8439 8.82447C80.656 14.1906 79.8666 16.0137 77.7521 16.1923L77.207 16.2393V19.5097Z" fill="#AD2411"/>
        <path d="M115.268 9.88641C115.268 3.58993 111.358 0 106.255 0C101.124 0 97.243 3.58993 97.243 9.88641C97.243 16.1547 101.124 19.7728 106.255 19.7728C111.358 19.7728 115.268 16.1829 115.268 9.88641ZM111.142 9.88641C111.142 13.965 109.206 16.1735 106.255 16.1735C103.295 16.1735 101.369 13.965 101.369 9.88641C101.369 5.8078 103.295 3.59933 106.255 3.59933C109.206 3.59933 111.142 5.8078 111.142 9.88641Z" fill="#AD2411"/>
        <path d="M118.282 0.263137V19.5097H122.229V6.93553H122.389L127.37 19.4157H130.057L135.038 6.98251H135.198V19.5097H139.145V0.263137H134.127L128.826 13.1944H128.601L123.301 0.263137H118.282Z" fill="#AD2411"/>
        <path d="M142.498 19.5097H149.696C154.264 19.5097 157.102 17.0005 157.102 13.3636C157.102 9.71725 154.264 7.37722 149.696 7.37722H146.567V3.61813H155.269V0.263137H142.498V19.5097ZM146.567 16.2393V10.5912H149.696C151.877 10.5912 153.07 11.7942 153.07 13.326C153.07 14.9048 151.877 16.2393 149.696 16.2393H146.567Z" fill="#AD2411"/>
        <path d="M163.053 19.5097L164.481 15.121H171.426L172.855 19.5097H177.215L170.581 0.263137H165.337L158.692 19.5097H163.053ZM165.515 11.9445L167.883 4.66128H168.034L170.402 11.9445H165.515Z" fill="#AD2411"/>
        <path d="M179.532 19.5097H183.601V13.2696H187.022C191.448 13.2696 194.023 10.6288 194.023 6.78516C194.023 2.96029 191.495 0.263137 187.125 0.263137H179.532V19.5097ZM183.601 10.0086V3.58993H186.345C188.695 3.58993 189.832 4.86803 189.832 6.78516C189.832 8.6929 188.695 10.0086 186.364 10.0086H183.601Z" fill="#AD2411"/>
        <path d="M195.623 24.1522H199.533V19.5097H211.139V24.1334H215.048V16.2675H212.943V0.263137H200.209L199.664 8.40157C199.335 13.4388 198.254 15.3089 196.929 16.2675H195.623V24.1522ZM201.628 16.2675C202.596 14.6793 203.32 12.2077 203.574 8.40157L203.874 3.61813H209.034V16.2675H201.628Z" fill="#AD2411"/>
        <path d="M0.822266 58.8349H7.78912V48.8107H17.0114V58.8349H23.9783V33.1729H17.0114V43.1971H7.78912V33.1729H0.822266V58.8349Z" fill="#0046AD"/>
        <path d="M33.9524 58.8349L35.431 53.9231H43.9015L45.3801 58.8349H52.8982L44.4277 33.1729H34.9047L26.4342 58.8349H33.9524ZM37.0098 48.7104L39.566 40.24H39.7665L42.3227 48.7104H37.0098Z" fill="#0046AD"/>
        <path d="M55.3698 58.8349H62.3367V51.2165H66.196C72.0477 51.2165 75.9697 47.7707 75.9697 42.2448C75.9697 36.7816 72.1479 33.1729 66.4466 33.1729H55.3698V58.8349ZM62.3367 45.8034V38.7363H64.7926C67.236 38.7363 68.7021 40.0395 68.7021 42.2448C68.7021 44.4376 67.236 45.8034 64.7926 45.8034H62.3367Z" fill="#0046AD"/>
        <path d="M103.386 46.0039C103.386 37.4332 97.8727 32.822 90.9058 32.822C83.8888 32.822 78.4256 37.4332 78.4256 46.0039C78.4256 54.5245 83.8888 59.1858 90.9058 59.1858C97.8727 59.1858 103.386 54.5746 103.386 46.0039ZM96.2187 46.0039C96.2187 50.6151 94.3642 53.1211 90.9058 53.1211C87.4474 53.1211 85.5929 50.6151 85.5929 46.0039C85.5929 41.3927 87.4474 38.8867 90.9058 38.8867C94.3642 38.8867 96.2187 41.3927 96.2187 46.0039Z" fill="#0046AD"/>
        <path d="M105.757 64.9998H112.474V58.8349H126.207V64.9998H132.923V53.472H130.217V33.1729H112.073L111.221 44.0492C110.719 50.3143 109.366 52.3693 107.562 53.472H105.757V64.9998ZM115.531 53.472C116.634 51.5674 117.586 48.7606 117.937 44.0492L118.338 38.7864H123.5V53.472H115.531Z" fill="#0046AD"/>
        <path d="M135.279 58.8349H142.246V48.8107H151.468V58.8349H158.435V33.1729H151.468V43.1971H142.246V33.1729H135.279V58.8349Z" fill="#0046AD"/>
        <path d="M168.86 41.7937V33.1729H161.893V58.8349H171.466C177.944 58.8349 182.255 55.3264 182.242 50.2141C182.255 45.1017 177.944 41.7937 171.466 41.7937H168.86ZM191.014 33.1729H184.047V58.8349H191.014V33.1729ZM168.86 47.1066H171.466C173.985 47.1066 175.338 48.4097 175.326 50.164C175.338 52.0184 173.985 53.3717 171.466 53.3717H168.86V47.1066Z" fill="#0046AD"/>
        <path d="M194.306 33.1729V58.8349H200.12L209.392 45.3523H209.543V58.8349H216.51V33.1729H210.595L201.473 46.6054H201.273V33.1729H194.306ZM207.889 26.2561C207.876 27.3588 207.175 28.3612 205.383 28.3612C203.516 28.3612 202.814 27.3087 202.827 26.2561H198.516C198.504 29.514 201.16 31.6191 205.383 31.6191C209.58 31.6191 212.237 29.514 212.249 26.2561H207.889Z" fill="#0046AD"/>
    </symbol>
    <symbol id="fast" viewBox="0 0 54 54">
        <path d="M9.44566 19.9883H5.70358C5.1513 19.9883 4.70358 20.436 4.70358 20.9883V21.9179C4.70358 22.4702 5.1513 22.9179 5.70358 22.9179H9.44566C9.99794 22.9179 10.4457 22.4702 10.4457 21.9179V20.9883C10.4457 20.436 9.99794 19.9883 9.44566 19.9883Z" fill="#0046AD"/>
        <path d="M9.44566 31.707H5.70358C5.1513 31.707 4.70358 32.1547 4.70358 32.707V33.6367C4.70358 34.1889 5.1513 34.6367 5.70358 34.6367H9.44566C9.99794 34.6367 10.4457 34.1889 10.4457 33.6367V32.707C10.4457 32.1547 9.99794 31.707 9.44566 31.707Z" fill="#0046AD"/>
        <path d="M9.44612 25.8477H3C2.44772 25.8477 2 26.2954 2 26.8477V27.7773C2 28.3296 2.44771 28.7773 3 28.7773H9.44612C9.99841 28.7773 10.4461 28.3296 10.4461 27.7773V26.8477C10.4461 26.2954 9.99841 25.8477 9.44612 25.8477Z" fill="#0046AD"/>
        <path d="M32.6884 8.00049C22.0228 8.00049 13.3767 16.6466 13.3767 27.3121C13.3767 37.9776 22.0228 46.6238 32.6884 46.6238C43.3539 46.6238 52 37.9776 52 27.3121C52 16.6466 43.3539 8.00049 32.6884 8.00049ZM39.6034 34.0327C39.1478 34.7012 38.2365 34.8739 37.568 34.4183L31.5356 30.3074C30.989 29.9349 30.6619 29.3162 30.6619 28.6547V19.3255C30.6619 18.5165 31.3178 17.8606 32.1267 17.8606C32.9357 17.8606 33.5916 18.5165 33.5916 19.3255V27.1059C33.5916 27.7674 33.9187 28.3861 34.4653 28.7586L39.2178 31.9972C39.8864 32.4528 40.059 33.3641 39.6034 34.0327Z" fill="#0046AD"/>
    </symbol>
    <symbol id="car1" viewBox="0 0 54 54">
        <g clip-path="url(#clip1)">
            <path d="M57.0605 19.6699L51.5986 17.1768C51.4124 17.0941 51.2549 16.9581 51.1457 16.7861L46.4127 9.24142C45.5312 7.83417 43.9825 6.98546 42.322 6.99969H23.0882C21.5866 6.99512 20.1685 7.68993 19.2519 8.87933L13.1651 16.8534C13.029 17.0357 12.8362 17.1675 12.6169 17.2281L2.44413 20.0117C0.991326 20.4163 -0.0101045 21.744 7.69246e-05 23.252V26.9721C7.69246e-05 28.8241 1.44753 30.3644 3.29976 30.3644H4.18593C4.44712 26.9228 7.18226 24.1877 10.6238 23.9265C14.4713 23.6345 17.8272 26.5167 18.1192 30.3644H40.147C40.4082 26.9228 43.1433 24.1878 46.5849 23.9265C50.4324 23.6345 53.7882 26.5167 54.0802 30.3644H55.7002C57.5524 30.3644 58.9999 28.8241 58.9999 26.9721V22.7255C59.0103 21.4142 58.2514 20.2185 57.0605 19.6699Z" fill="#0046AD"/>
            <path d="M11.153 36.9631L11.1543 36.9631C14.5212 36.9594 17.2497 34.2309 17.2534 30.8641V30.8628C17.2534 27.4936 14.5222 24.7624 11.153 24.7624C7.78384 24.7624 5.05262 27.4936 5.05262 30.8628C5.05262 34.2319 7.78385 36.9631 11.153 36.9631Z" fill="#0046AD" stroke="#F9F9F9" stroke-width="2.4"/>
            <path d="M47.1141 25.9624C44.4077 25.9624 42.2137 28.1564 42.2137 30.8628C42.2137 33.5692 44.4077 35.7631 47.114 35.7631C49.8191 35.7601 52.0114 33.5679 52.0145 30.8628C52.0145 28.1564 49.8204 25.9624 47.1141 25.9624Z" fill="#0046AD"/>
        </g>
        <path d="M33.6802 39.75L34.9776 38.4529L33.4486 37.439C31.9659 36.4559 30.693 35.1831 29.7099 33.7004L28.6964 32.1717L27.3993 33.4685L19.7999 41.0659L19.7998 41.066C18.0667 42.7991 18.0667 45.6142 19.7998 47.3472C21.5363 49.0838 24.346 49.0819 26.0808 47.3473C26.0808 47.3473 26.0809 47.3472 26.0809 47.3472L33.6802 39.75Z" fill="#0046AD" stroke="#F9F9F9" stroke-width="3"/>
        <path d="M40.722 40.6745C48.5793 40.6745 54.9696 34.2841 54.9696 26.4268C54.9696 18.5696 48.5792 12.1792 40.722 12.1792C32.8647 12.1792 26.4743 18.5696 26.4743 26.4268C26.4743 34.2841 32.8647 40.6745 40.722 40.6745Z" fill="#0046AD" stroke="#F9F9F9" stroke-width="3"/>
        <path d="M44.5874 29.1803C44.5874 26.908 42.7787 25.0594 40.5556 25.0594C39.7933 25.0594 39.1733 24.4256 39.1733 23.6466C39.1733 22.8676 39.7934 22.2338 40.5556 22.2338H43.2626C43.9942 22.2338 44.5874 21.6276 44.5874 20.8798C44.5874 20.1321 43.9942 19.5258 43.2626 19.5258H41.8804V18.8975C41.8804 18.1497 41.2872 17.5435 40.5556 17.5435C39.824 17.5435 39.2308 18.1497 39.2308 18.8975V19.7555C37.6567 20.3169 36.5237 21.8487 36.5237 23.6466C36.5237 25.9188 38.3325 27.7674 40.5556 27.7674C41.3178 27.7674 41.9379 28.4012 41.9379 29.1803C41.9379 29.9593 41.3178 30.5931 40.5556 30.5931H37.8485C37.1169 30.5931 36.5237 31.1993 36.5237 31.9471C36.5237 32.6949 37.1169 33.3011 37.8485 33.3011H39.2308V33.9295C39.2308 34.6772 39.824 35.2835 40.5556 35.2835C41.2872 35.2835 41.8804 34.6772 41.8804 33.9295V33.0715C43.4545 32.51 44.5874 30.9782 44.5874 29.1803Z" fill="#F9F9F9"/>
        <defs>
            <clipPath id="clip1">
                <rect width="54" height="54" fill="white" transform="translate(0 -0.000488281)"/>
            </clipPath>
        </defs>
    </symbol>
    <symbol id="car2" viewBox="0 0 54 54">
        <path d="M46.8029 21.5342L43.5322 10.3858C42.7864 7.84333 40.542 6.13623 37.9474 6.13623H16.0525C13.4579 6.13623 11.2135 7.84334 10.4677 10.3858L7.19695 21.5342C5.13167 22.452 3.68176 24.5536 3.68176 26.9999V38.9219C3.68176 40.5679 4.98686 41.9025 6.59654 41.9025H6.59671L6.59654 44.8828C6.59654 46.529 7.90146 47.8635 9.51131 47.8635H12.4263C14.0359 47.8635 15.341 46.529 15.341 44.883L15.3398 41.9025H38.659L38.6589 44.8828C38.6589 46.529 39.9638 47.8635 41.5736 47.8635H44.4886C46.0984 47.8635 47.4034 46.529 47.4034 44.883V41.9026L47.4023 41.9025H47.4034C49.013 41.9025 50.3181 40.5679 50.3181 38.9219V26.9999C50.3181 24.5536 48.8682 22.4519 46.8029 21.5342L46.8029 21.5342ZM16.0524 12.0973H37.9473L40.5707 21.0388H13.429L16.0524 12.0973H16.0524ZM15.3408 34.4512C13.7309 34.4512 12.426 33.1166 12.426 31.4706C12.426 29.8245 13.7309 28.4901 15.3408 28.4901C16.9506 28.4901 18.2555 29.8245 18.2555 31.4706C18.2555 33.1166 16.9506 34.4512 15.3408 34.4512ZM38.6589 34.4512C37.0491 34.4512 35.7442 33.1166 35.7442 31.4706C35.7442 29.8245 37.0491 28.4901 38.6589 28.4901C40.2688 28.4901 41.5737 29.8245 41.5737 31.4706C41.5737 33.1166 40.2688 34.4512 38.6589 34.4512Z" fill="#0046AD"/>
    </symbol>
    <symbol id="file" viewBox="0 0 54 54">
        <path d="M16.0758 51.5453H36.9279V43.8534C36.9279 42.9607 37.6515 42.2372 38.5441 42.2372H46.6843V11.0268C46.6843 10.1911 46.0069 9.51367 45.1713 9.51367H16.0758C15.2401 9.51367 14.5627 10.1911 14.5627 11.0268V50.0322C14.5627 50.8679 15.2401 51.5453 16.0758 51.5453ZM19.5808 19.1758H41.8812C42.7738 19.1758 43.4974 19.8995 43.4974 20.792C43.4974 21.6846 42.7738 22.4082 41.8812 22.4082H19.5808C18.6883 22.4082 17.9646 21.6846 17.9646 20.792C17.9646 19.8995 18.6883 19.1758 19.5808 19.1758ZM19.5808 25.6557H41.8812C42.7738 25.6557 43.4974 26.3793 43.4974 27.2719C43.4974 28.1644 42.7738 28.888 41.8812 28.888H19.5808C18.6883 28.888 17.9646 28.1644 17.9646 27.2719C17.9646 26.3793 18.6883 25.6557 19.5808 25.6557ZM19.5808 32.1356H41.8812C42.7738 32.1356 43.4974 32.8592 43.4974 33.7518C43.4974 34.6444 42.7738 35.368 41.8812 35.368H19.5808C18.6883 35.368 17.9646 34.6444 17.9646 33.7518C17.9646 32.8592 18.6883 32.1356 19.5808 32.1356ZM19.5808 38.6155H32.8358C33.7284 38.6155 34.452 39.3391 34.452 40.2316C34.452 41.1242 33.7284 41.8478 32.8358 41.8478H19.5808C18.6883 41.8478 17.9646 41.1242 17.9646 40.2316C17.9646 39.3391 18.6883 38.6155 19.5808 38.6155Z" fill="#0046AD"/>
        <path d="M11.3303 7.89735C11.3303 7.0047 12.054 6.28118 12.9465 6.28118H41.4905V2.74023C41.4906 1.90448 40.8131 1.22705 39.9774 1.22705H7.64945C6.8138 1.22705 6.13637 1.90448 6.13637 2.74013V44.978C6.13637 45.8137 6.8138 46.4911 7.64945 46.4911H11.3303V7.89735Z" fill="#0046AD"/>
        <path d="M44.2652 45.4692H40.1604V49.3855L44.2652 45.4692Z" fill="#0046AD"/>
    </symbol>
    <symbol id="person" viewBox="0 0 54 54">
        <g clip-path="url(#clip2)">
            <path d="M5.93103 39.9539V50.4883C5.93103 52.4292 7.50157 53.9997 9.44248 53.9997H44.5574C46.4983 53.9997 48.0688 52.4292 48.0688 50.4883V39.9539C48.0688 34.1347 43.3574 29.4194 37.5345 29.4194H36.634C36.1617 29.4194 35.7831 29.8034 35.7379 30.2735C35.3083 34.7216 31.5605 38.1983 26.9997 38.1983C22.439 38.1983 18.6913 34.7216 18.262 30.2735C18.2167 29.8034 17.8382 29.4194 17.3658 29.4194H16.4653C10.6494 29.4194 5.93103 34.1347 5.93103 39.9539Z" fill="#0046AD"/>
            <path d="M26.9998 28.8713C33.9745 28.8713 39.631 22.4076 39.631 14.4355C39.631 6.46334 33.9745 0 26.9998 0C20.025 0 14.3685 6.46362 14.3685 14.4358C14.3685 22.408 20.025 28.8713 26.9998 28.8713ZM26.9998 14.4358C30.2952 14.4358 33.0442 12.7689 33.9109 10.5028C35.208 12.0657 36.022 14.0481 36.022 16.2405C36.022 21.2239 31.9795 25.2627 26.9998 25.2627C22.0163 25.2627 17.9775 21.2239 17.9775 16.2405C17.9775 14.0481 23.7043 14.4358 26.9998 14.4358Z" fill="#0046AD"/>
            <circle cx="39.8863" cy="39.8866" r="14.1136" fill="#0046AD" stroke="#F9F9F9" stroke-width="3"/>
            <path d="M34.3636 39.8504L38.4545 44.182L45.409 36.8184" stroke="#F9F9F9" stroke-width="2" stroke-linecap="round"/>
        </g>
        <defs>
            <clipPath id="clip2">
                <rect width="54" height="54" fill="white"/>
            </clipPath>
        </defs>
    </symbol>
    <symbol id="debt" viewBox="0 0 54 54">
        <path d="M18.4091 17.1821C8.25823 17.1821 0 25.4404 0 35.5912C0 45.7421 8.25823 54.0003 18.4091 54.0003C28.56 54.0003 36.8182 45.7421 36.8182 35.5912C36.8182 25.4404 28.5598 17.1821 18.4091 17.1821ZM18.4091 33.9038C21.2408 33.9038 23.5447 36.2076 23.5447 39.0395C23.5447 41.2802 22.1017 43.1891 20.0965 43.8888V44.9581C20.0965 45.89 19.341 46.6455 18.4091 46.6455C17.4772 46.6455 16.7216 45.89 16.7216 44.9581V44.175H14.9609C14.0289 44.175 13.2734 43.4195 13.2734 42.4876C13.2734 41.5557 14.0289 40.8001 14.9609 40.8001H18.4091C19.3799 40.8001 20.1698 40.0103 20.1698 39.0395C20.1698 38.0685 19.3799 37.2787 18.4091 37.2787C15.5773 37.2787 13.2734 34.9749 13.2734 32.1431C13.2734 29.9024 14.7165 27.9935 16.7216 27.2937V26.2245C16.7216 25.2925 17.4772 24.537 18.4091 24.537C19.341 24.537 20.0965 25.2925 20.0965 26.2245V27.0075H21.8572C22.7891 27.0075 23.5447 27.7631 23.5447 28.695C23.5447 29.6269 22.7891 30.3824 21.8572 30.3824H18.4091C17.4382 30.3824 16.6483 31.1723 16.6483 32.1431C16.6483 33.1139 17.4381 33.9038 18.4091 33.9038Z" fill="#0046AD"/>
        <path d="M43.5694 10.422H37.2987C34.7132 10.422 32.6098 9.54593 32.6098 6.96047C32.6098 2.63034 29.0871 0.334961 24.7569 0.334961C20.4268 0.334961 16.9041 3.85762 16.9041 8.18774V12.8766H13.2713C12.5679 12.8766 11.949 13.3409 11.7523 14.0164L10.7341 17.513C13.1257 16.5281 15.7433 15.9833 18.4861 15.9833C21.2288 15.9833 23.8463 16.528 26.2379 17.513L25.2197 14.0164C25.0231 13.3411 24.4041 12.8766 23.7008 12.8766H20.068V8.18774C20.068 5.60239 22.1714 3.49902 24.7568 3.49902C27.3423 3.49902 29.4457 4.37511 29.4457 6.96047C29.4457 11.2906 32.9684 13.5861 37.2985 13.5861H43.5693C44.443 13.5861 45.1513 12.8778 45.1513 12.0041C45.1513 11.1304 44.4431 10.422 43.5694 10.422Z" fill="#0046AD"/>
        <path d="M52.418 10.4219H49.2825C48.4088 10.4219 47.7004 11.1302 47.7004 12.0039C47.7004 12.8776 48.4088 13.5859 49.2825 13.5859H52.418C53.2917 13.5859 54 12.8776 54 12.0039C54 11.1302 53.2917 10.4219 52.418 10.4219Z" fill="#0046AD"/>
        <path d="M47.2497 8.67845C47.6546 8.67845 48.0595 8.52394 48.3683 8.21502L50.5854 5.99797C51.2032 5.38024 51.2032 4.3785 50.5854 3.76066C49.9676 3.14293 48.9659 3.14293 48.3481 3.76066L46.1311 5.97772C45.5133 6.59545 45.5133 7.59719 46.1311 8.21502C46.4399 8.52394 46.8448 8.67845 47.2497 8.67845Z" fill="#0046AD"/>
        <path d="M42.3425 0.34668C41.4688 0.34668 40.7605 1.05501 40.7605 1.92871V5.06419C40.7605 5.93789 41.4688 6.64622 42.3425 6.64622C43.2162 6.64622 43.9246 5.93789 43.9246 5.06419V1.92871C43.9246 1.05501 43.2162 0.34668 42.3425 0.34668Z" fill="#0046AD"/>
        <path d="M36.3159 8.21511C36.6248 8.52413 37.0297 8.67854 37.4345 8.67854C37.8393 8.67854 38.2443 8.52402 38.5531 8.21511C39.171 7.59738 39.171 6.59574 38.5531 5.9778L36.3361 3.76074C35.7183 3.1428 34.7166 3.14301 34.0988 3.76074C33.4809 4.37847 33.4809 5.38011 34.0988 5.99805L36.3159 8.21511Z" fill="#0046AD"/>
        <path d="M36.3161 15.793L34.099 18.01C33.4812 18.6277 33.4812 19.6295 34.099 20.2473C34.4079 20.5562 34.8128 20.7108 35.2176 20.7108C35.6224 20.7108 36.0274 20.5562 36.3362 20.2473L38.5533 18.0303C39.1711 17.4125 39.1711 16.4108 38.5533 15.793C37.9356 15.1751 36.9338 15.1751 36.3161 15.793Z" fill="#0046AD"/>
        <path d="M42.3425 17.3623C41.4688 17.3623 40.7605 18.0706 40.7605 18.9443V22.0798C40.7605 22.9535 41.4688 23.6618 42.3425 23.6618C43.2162 23.6618 43.9246 22.9535 43.9246 22.0798V18.9443C43.9246 18.0705 43.2162 17.3623 42.3425 17.3623Z" fill="#0046AD"/>
        <path d="M48.3684 15.793C47.7506 15.175 46.7489 15.1752 46.1311 15.793C45.5132 16.4108 45.5133 17.4124 46.1311 18.0303L48.3481 20.2473C48.657 20.5563 49.0619 20.7108 49.4667 20.7108C49.8715 20.7108 50.2765 20.5562 50.5853 20.2473C51.2032 19.6295 51.2031 18.6279 50.5853 18.01L48.3684 15.793Z" fill="#0046AD"/>
    </symbol>
    <symbol id="vedita" viewBox="0 0 127 34">
        <path fill-rule="evenodd" clip-rule="evenodd" d="M49.9889 1.22711C49.9977 1.06995 49.9741 0.912653 49.9195 0.764923C49.8604 0.612933 49.7695 0.475269 49.6525 0.361173C49.542 0.247394 49.4094 0.157042 49.2628 0.0955484C49.1171 0.0325234 48.9599 0 48.8011 0C48.6422 0 48.485 0.0325234 48.3393 0.0955484C48.1934 0.158274 48.0611 0.24847 47.9496 0.361173C47.8402 0.478139 47.755 0.615313 47.6987 0.764923C47.6441 0.912653 47.6205 1.06995 47.6293 1.22711V9.68461C46.8652 8.84247 45.9309 8.1705 44.8877 7.71277C43.8444 7.25499 42.7157 7.02177 41.5756 7.02836C39.6397 7.02363 37.7621 7.68812 36.2639 8.90835C34.7657 10.1285 33.7398 11.8286 33.3616 13.7181C32.9833 15.6076 33.2763 17.5692 34.1903 19.2676C35.1043 20.9659 36.5826 22.2957 38.3726 23.0296C39.3889 23.4448 40.4771 23.6578 41.5756 23.6565C46.3054 23.6565 49.9568 20.469 49.9568 15.013V1.23242L49.9889 1.22711ZM41.645 21.3562C40.4521 21.3504 39.2876 20.9936 38.2979 20.3309C37.3086 19.6706 36.5407 18.7306 36.0932 17.6321C35.7465 16.8099 35.5887 15.9212 35.631 15.0306C35.6733 14.1401 35.9148 13.2701 36.3379 12.4842C36.7609 11.6983 37.3548 11.0162 38.0763 10.4877C38.7978 9.95916 39.6287 9.59754 40.5085 9.42913C41.3883 9.26073 42.2948 9.28984 43.1618 9.51429C44.0289 9.73875 44.8347 10.1529 45.5205 10.7266C46.2063 11.3002 46.7548 12.0189 47.1261 12.8304C47.4974 13.6417 47.6821 14.5254 47.6667 15.4168C47.6664 16.2073 47.5087 16.9899 47.2027 17.7194C46.8966 18.4489 46.4483 19.1108 45.8837 19.6668C45.322 20.2207 44.6563 20.6594 43.9245 20.9577C43.1981 21.2374 42.4237 21.3728 41.645 21.3562ZM31.673 14.9812C31.5662 12.5959 29.2494 7.20367 23.5053 7.20367C21.7484 7.20729 20.0378 7.76451 18.6188 8.7954C17.1997 9.82629 16.1451 11.2779 15.6063 12.942C15.0675 14.6062 15.072 16.3974 15.6193 18.0588C16.1666 19.7202 17.2285 21.1665 18.6528 22.1902C19.5968 22.8702 20.6741 23.3447 21.8147 23.5827C22.9552 23.8207 24.1333 23.8169 25.2723 23.5715C26.9134 23.198 28.4023 22.3386 29.543 21.1065C29.6525 21.012 29.7415 20.8963 29.8046 20.7665C29.8628 20.6338 29.8954 20.4915 29.9007 20.3468C29.9054 20.2033 29.88 20.0603 29.8259 19.9271C29.7688 19.7931 29.6873 19.6706 29.5857 19.5659C29.4824 19.4648 29.3611 19.3837 29.228 19.3268C29.0947 19.2703 28.9512 19.2414 28.8063 19.2418C28.6601 19.2411 28.5152 19.2681 28.3792 19.3215C28.2462 19.3784 28.1249 19.4595 28.0216 19.5605C27.76 19.7837 27.4877 20.0121 27.2368 20.2246C26.4522 20.8151 25.537 21.2103 24.5677 21.3774C23.604 21.5508 22.6129 21.4962 21.6743 21.2181C20.7372 20.9353 19.8785 20.4407 19.1653 19.773C18.448 19.1058 17.8993 18.2794 17.5637 17.3612C17.3235 16.6599 17.4196 16.6174 18.199 16.6174H30.0662C31.2566 16.6068 31.705 16.1659 31.6516 14.9705L31.673 14.9812ZM28.6622 14.3968H17.9855C17.4837 14.3968 17.3609 14.264 17.489 13.7593C17.815 12.4585 18.5673 11.303 19.627 10.4752C20.6866 9.64748 21.9933 9.1948 23.3404 9.18869C24.6876 9.18258 25.9983 9.62346 27.0655 10.4416C28.1327 11.2597 28.8955 12.4084 29.2334 13.7062C29.3668 14.2374 29.2334 14.3968 28.6995 14.3968H28.6622ZM84.2184 15.948C84.2184 11.7512 82.5688 9.57305 79.2164 8.02711C74.1716 5.67899 68.1126 9.23836 67.6215 14.7209C67.2264 19.1143 70.3867 23.0455 74.4492 23.5715C75.787 23.7623 77.1509 23.646 78.437 23.2315C79.723 22.816 80.8985 22.1169 81.8749 21.1862V22.7799C81.8711 22.9279 81.9005 23.0748 81.9603 23.2102C82.0222 23.3439 82.1113 23.4633 82.2218 23.5609C82.3313 23.6595 82.4605 23.7338 82.6009 23.7787C82.7423 23.8222 82.8913 23.8366 83.0386 23.8212C83.1849 23.8301 83.3312 23.8121 83.471 23.768C83.6098 23.7197 83.7385 23.6458 83.85 23.5502C83.9589 23.4532 84.0481 23.3359 84.1116 23.2049C84.1757 23.0738 84.212 22.931 84.2184 22.7852V15.948ZM81.8535 15.4699C81.8402 16.8347 81.3528 18.1527 80.4735 19.2006C79.5948 20.2484 78.3788 20.9614 77.0319 21.2186C75.685 21.4759 74.2907 21.2616 73.0842 20.6121C71.8783 19.9625 70.935 18.9177 70.4145 17.6549C69.8945 16.3921 69.8294 14.9891 70.2298 13.6839C70.6307 12.3786 71.4731 11.2516 72.6134 10.4939C73.7542 9.73625 75.1235 9.39455 76.4885 9.52688C77.8535 9.65922 79.1304 10.2574 80.1025 11.2199C80.6588 11.7762 81.1013 12.4348 81.4051 13.159C81.7051 13.8852 81.8578 14.6634 81.8535 15.4487V15.4699ZM65.9292 22.4771C65.9191 22.6262 65.8812 22.7722 65.8171 22.9074C65.7536 23.0416 65.6628 23.161 65.5502 23.258C65.4381 23.3572 65.3078 23.4331 65.1658 23.4812C65.0233 23.5295 64.8728 23.5493 64.7227 23.5396C61.3276 23.5396 56.9234 21.2393 56.9234 15.0396V1.23242C56.9143 1.07351 56.9378 0.914391 56.9928 0.764923C57.0457 0.615132 57.1311 0.478984 57.2437 0.366486C57.3537 0.253542 57.4861 0.163827 57.6318 0.102678C57.7776 0.0415301 57.934 0.0101985 58.0925 0.0105483C58.2521 0.00989754 58.4107 0.0424678 58.557 0.106173C58.7043 0.168973 58.8367 0.261192 58.9467 0.377111C59.0572 0.491264 59.1426 0.626926 59.1976 0.775548C59.2525 0.925016 59.276 1.08413 59.267 1.24305V8.87711C59.2627 8.9747 59.2787 9.07213 59.3134 9.1634C59.3486 9.25472 59.4015 9.33808 59.4698 9.40836C59.5382 9.48077 59.6209 9.53809 59.7127 9.57655C59.8045 9.61496 59.9038 9.63372 60.0037 9.63149H64.6C64.8813 9.63967 65.1477 9.75803 65.342 9.96086C65.5374 10.1596 65.6463 10.4266 65.6463 10.7046C65.6468 10.8444 65.6201 10.983 65.5667 11.1125C65.5139 11.242 65.4354 11.3597 65.3367 11.459C65.1557 11.6382 64.9139 11.7426 64.6587 11.7512H59.9609C59.8659 11.7485 59.7714 11.7648 59.6834 11.799C59.5958 11.837 59.5157 11.8911 59.4485 11.9584C59.3801 12.024 59.3273 12.1038 59.2937 12.1921C59.2568 12.2793 59.2403 12.3739 59.2456 12.4684V15.6559C59.2547 17.1426 59.8424 18.568 60.8861 19.6321C61.9292 20.6962 63.3471 21.3161 64.8402 21.3615C64.9865 21.3586 65.1317 21.3858 65.2673 21.4412C65.4045 21.4983 65.5278 21.5834 65.6303 21.6909C65.729 21.7989 65.8054 21.9252 65.8545 22.0627C65.902 22.201 65.9201 22.3475 65.9079 22.493L65.9292 22.4771ZM14.7611 7.8943C14.7612 8.04645 14.7284 8.19679 14.665 8.33524L8.25901 22.7534C8.15988 22.8956 8.02733 23.0115 7.87289 23.0912C7.71845 23.1708 7.54677 23.2117 7.37285 23.2102C7.12381 23.2096 6.88119 23.1316 6.67886 22.9871C6.47659 22.8412 6.32685 22.6345 6.2518 22.3974L0.0966808 8.21836C0.0351354 8.07949 0.00419053 7.92915 0.00592875 7.77742C0.00990439 7.52795 0.0985866 7.28719 0.257547 7.09429C0.416508 6.90139 0.63639 6.76768 0.88142 6.71492C1.12496 6.65803 1.38065 6.68422 1.60743 6.7893C1.84445 6.89576 2.03427 7.08467 2.14127 7.32055L7.47962 19.2152L12.6311 7.44805C12.7355 7.2151 12.9169 7.02475 13.1452 6.90872C13.3735 6.79275 13.6348 6.75806 13.8856 6.81055C14.1326 6.86118 14.3549 6.99399 14.516 7.1871C14.6771 7.38021 14.7673 7.62214 14.7718 7.87305L14.7611 7.8943Z" fill="black"/>
        <path fill-rule="evenodd" clip-rule="evenodd" d="M39.9467 15.4545C39.9476 15.1234 40.0462 14.7998 40.2303 14.524C40.4144 14.2482 40.6759 14.0323 40.9823 13.9032C41.293 13.7817 41.6328 13.7539 41.9592 13.8235C42.285 13.8875 42.5842 14.0465 42.8187 14.2804C43.0582 14.5133 43.2203 14.8137 43.2831 15.141C43.3293 15.3819 43.3217 15.63 43.2609 15.8677C43.2001 16.1053 43.0875 16.3267 42.9311 16.5163C42.7748 16.7058 42.5784 16.8589 42.3561 16.9646C42.1337 17.0702 41.8907 17.126 41.6442 17.1279C41.4244 17.1282 41.2066 17.0849 41.0036 17.0004C40.8045 16.9144 40.6234 16.7919 40.4698 16.6391C40.316 16.4867 40.1928 16.3064 40.1068 16.1079C40.009 15.9034 39.9544 15.6809 39.9467 15.4545ZM54.7767 32.3429C54.7783 32.4958 54.7489 32.6475 54.6913 32.7891C54.6288 32.9304 54.5418 33.0598 54.435 33.1716C54.3245 33.277 54.1964 33.3616 54.056 33.4213C53.9119 33.4803 53.7576 33.511 53.6023 33.5116C53.448 33.5109 53.2959 33.4803 53.1537 33.4213C53.0109 33.3634 52.8811 33.2776 52.772 33.169C52.6629 33.0605 52.5768 32.9313 52.5185 32.7891C52.4587 32.6479 52.4279 32.4962 52.4277 32.3429V1.23823C52.4279 1.08495 52.4587 0.933242 52.5185 0.791978C52.5768 0.649815 52.6629 0.520662 52.772 0.412102C52.8811 0.303541 53.0109 0.217759 53.1537 0.159789C53.2949 0.0977929 53.448 0.0669814 53.6023 0.0694762C53.7581 0.0675334 53.9129 0.0983061 54.056 0.159789C54.1964 0.219565 54.3245 0.304159 54.435 0.409476C54.5418 0.521319 54.6288 0.650729 54.6913 0.791978C54.7489 0.933614 54.7783 1.08531 54.7767 1.23823V32.3429ZM57.2323 26.6426C57.9845 26.5337 58.7489 26.5337 59.5011 26.6426C60.2277 26.7279 60.9062 27.0469 61.4336 27.551C61.8489 27.9493 62.1564 28.4459 62.3267 28.9943C62.4975 29.5427 62.5253 30.1252 62.4089 30.6874C62.292 31.2496 62.0342 31.7732 61.6594 32.2095C61.2841 32.6458 60.8042 32.9804 60.2645 33.1823C59.2897 33.5186 58.2418 33.5847 57.2323 33.3735V26.6426ZM57.7235 30.0266V32.8263C57.7235 32.9273 57.7235 33.0229 57.8676 33.0282C58.7265 33.1196 59.5945 32.9744 60.3766 32.6085C60.8112 32.3702 61.1784 32.0267 61.4443 31.6098C61.7176 31.1891 61.881 30.7069 61.9194 30.2073C61.9573 29.7074 61.8649 29.2061 61.6525 28.7516C61.4416 28.2978 61.1208 27.9034 60.7183 27.6041C59.8657 27.0796 58.8525 26.876 57.8622 27.0304C57.7021 27.0304 57.6968 27.142 57.6968 27.2641V30.0266H57.7235ZM68.7578 33.517C68.4856 33.4691 68.224 33.4532 67.9357 33.3788C67.1584 33.1626 66.4794 32.6868 66.0123 32.0314C65.5457 31.376 65.3199 30.5808 65.3722 29.7792C65.4251 28.9776 65.7529 28.2184 66.3011 27.6289C66.8499 27.0395 67.585 26.6556 68.3841 26.5416H68.4375H69.361C69.9771 26.6258 70.5632 26.8573 71.0693 27.2163L71.1814 27.296C71.3896 27.4607 71.3789 27.6041 71.1441 27.7476C71.0533 27.8007 71.0106 27.7476 70.9572 27.6945C70.512 27.3279 69.9782 27.0843 69.4091 26.9879C69.0269 26.9083 68.6324 26.9083 68.2507 26.9879C67.8668 27.0684 67.5038 27.2256 67.183 27.4501C66.8622 27.6742 66.5899 27.9598 66.3822 28.29C66.1741 28.6203 66.0342 28.9885 65.9712 29.3732C65.8532 29.8899 65.8698 30.4279 66.0192 30.9365C66.1687 31.445 66.4463 31.9072 66.8253 32.2791C67.1536 32.5861 67.5481 32.8149 67.9784 32.9485C68.4119 33.0888 68.8726 33.127 69.3237 33.0601C69.8298 33.0074 70.3177 32.8402 70.749 32.5713C70.8168 32.5374 70.8729 32.4837 70.9092 32.4173C70.9449 32.3506 70.9599 32.2747 70.9519 32.1995C70.9519 31.8701 70.9519 31.5407 70.9519 31.206C70.9626 31.1787 70.9626 31.1484 70.9519 31.121C70.946 31.0922 70.9311 31.0661 70.9092 31.0466C70.89 31.023 70.8638 31.0062 70.8344 30.9988H70.749C70.4928 30.9988 70.2152 30.9988 69.9856 30.9988C69.9573 31.0065 69.928 31.0065 69.9002 30.9988C69.8741 30.9931 69.85 30.9802 69.8308 30.9616C69.81 30.9403 69.7935 30.915 69.7828 30.8873C69.7774 30.8592 69.7774 30.8304 69.7828 30.8023C69.7774 30.7742 69.7774 30.7454 69.7828 30.7173C69.7897 30.6905 69.8047 30.6665 69.8255 30.6482C69.8436 30.6264 69.8677 30.6099 69.8949 30.6004C69.921 30.5926 69.9488 30.5926 69.975 30.6004H71.2348C71.2647 30.5925 71.2957 30.5925 71.3256 30.6004C71.3533 30.6112 71.3789 30.6275 71.4003 30.6482C71.4211 30.6685 71.4361 30.6943 71.443 30.7226C71.4537 30.7518 71.4537 30.7837 71.443 30.8129C71.443 31.3441 71.443 31.8754 71.443 32.4438C71.4457 32.4988 71.435 32.5536 71.411 32.6032C71.3838 32.6523 71.3453 32.6942 71.2989 32.7254C70.7586 33.162 70.0977 33.425 69.4038 33.4798H69.265L68.7578 33.517ZM83.9721 33.3735C83.9401 33.3789 83.9075 33.3789 83.876 33.3735C83.8434 33.3649 83.8125 33.3505 83.7853 33.331C83.7586 33.3135 83.7367 33.2898 83.7212 33.262C83.702 33.2332 83.6892 33.2005 83.6838 33.1663C83.4703 32.6351 83.2461 32.1463 83.0326 31.631C83.0165 31.5743 82.9802 31.5253 82.9311 31.4929C82.8793 31.4625 82.8196 31.4495 82.7603 31.4557C81.7887 31.4557 80.8171 31.4557 79.8402 31.4557C79.7756 31.4502 79.7116 31.4671 79.6587 31.5035C79.6037 31.542 79.5642 31.5984 79.5466 31.6629C79.3331 32.1941 79.1089 32.7254 78.8847 33.2141C78.8281 33.2879 78.7496 33.3419 78.6604 33.3682C78.5724 33.3999 78.4763 33.3999 78.3882 33.3682C78.3028 33.3045 78.3882 33.2301 78.3882 33.1716L79.0128 31.7426L81.1161 26.8285V26.7754C81.1198 26.7268 81.1385 26.6806 81.1695 26.6426C81.202 26.6038 81.2442 26.5745 81.2923 26.5576C81.431 26.5576 81.431 26.6851 81.4684 26.7701C82.1128 28.2894 82.755 29.8088 83.3956 31.3282L84.1536 33.1238C84.2604 33.3735 84.2604 33.3735 83.9507 33.3735H83.9721ZM81.3029 27.5298C81.2858 27.545 81.2714 27.563 81.2602 27.5829C80.7942 28.6879 80.3276 29.7929 79.8616 30.8979C79.7922 31.0732 79.9043 31.052 80.0057 31.052H82.2852C82.7496 31.052 82.755 31.052 82.5735 30.6216C82.1517 29.591 81.73 28.571 81.3029 27.5245V27.5298ZM76.1781 30.186C76.1781 29.2138 76.1781 28.2416 76.1781 27.2641C76.1835 27.2307 76.1835 27.1967 76.1781 27.1632C76.1669 27.1281 76.1488 27.0956 76.1247 27.0676C76.0975 27.0434 76.0644 27.0268 76.0286 27.0198C75.9939 27.0091 75.9566 27.0091 75.9219 27.0198C75.4788 27.0198 75.0304 27.0198 74.582 27.0198C74.5542 27.0277 74.5243 27.0277 74.4965 27.0198C74.4677 27.013 74.4405 27.0003 74.4165 26.9826C74.3956 26.9612 74.3791 26.9359 74.3684 26.9082C74.3604 26.8787 74.3604 26.8475 74.3684 26.8179C74.3604 26.7884 74.3604 26.7572 74.3684 26.7276C74.3791 26.6998 74.3956 26.6746 74.4165 26.6532C74.4389 26.6313 74.4666 26.615 74.4965 26.6054C74.5259 26.5973 74.5574 26.5973 74.5873 26.6054H78.2494C78.2793 26.5975 78.3103 26.5975 78.3401 26.6054C78.3716 26.612 78.401 26.6266 78.4256 26.6479C78.4474 26.6704 78.464 26.6977 78.4736 26.7276C78.4816 26.7572 78.4816 26.7884 78.4736 26.8179C78.4736 27.0038 78.3829 27.0251 78.2387 27.0251H76.9362C76.6586 27.0251 76.6532 27.0251 76.6532 27.3013V33.1291C76.658 33.1791 76.6468 33.2293 76.6212 33.2726C76.5988 33.3159 76.563 33.3513 76.5198 33.3735C76.476 33.3987 76.4264 33.4116 76.3756 33.4107C76.326 33.4096 76.2779 33.3949 76.2368 33.3682C76.2016 33.3412 76.1754 33.3041 76.1621 33.262C76.1488 33.2205 76.1488 33.1759 76.1621 33.1344C76.1621 32.157 76.1621 31.1795 76.1621 30.2073L76.1781 30.186ZM73.3114 30.0001V33.0601C73.3114 33.347 73.2207 33.416 72.9324 33.3523C72.9062 33.3499 72.8817 33.3385 72.863 33.3201C72.8449 33.3016 72.8331 33.2773 72.831 33.2513C72.8256 33.2125 72.8256 33.1732 72.831 33.1344V26.8816C72.8203 26.8489 72.8203 26.8135 72.831 26.7807C72.84 26.7464 72.8587 26.7151 72.8844 26.6904C72.9073 26.665 72.9367 26.6466 72.9698 26.6373C73.0029 26.6294 73.0376 26.6294 73.0712 26.6373C73.1059 26.6266 73.1433 26.6266 73.178 26.6373C73.2143 26.6483 73.2474 26.6684 73.2741 26.6957C73.2991 26.7209 73.3173 26.752 73.3274 26.786C73.3381 26.8207 73.3381 26.8577 73.3274 26.8923C73.3274 27.9548 73.3274 28.9801 73.3274 30.0266L73.3114 30.0001ZM63.6544 30.0001V26.9241C63.6544 26.6479 63.6971 26.616 63.9693 26.6373C63.9923 26.6318 64.0158 26.6318 64.0387 26.6373C64.0606 26.6452 64.0809 26.6579 64.0974 26.6744C64.114 26.691 64.1268 26.7109 64.1348 26.7329C64.1401 26.7556 64.1401 26.7793 64.1348 26.802V33.1185C64.1348 33.3735 64.1348 33.3682 63.8786 33.3788C63.6223 33.3895 63.6383 33.3151 63.6383 33.1398C63.6383 32.0773 63.6383 31.0148 63.6383 29.9948L63.6544 30.0001ZM101.162 26.5735C101.778 26.6577 102.364 26.8892 102.87 27.2482L102.982 27.3279C103.19 27.4926 103.174 27.636 102.945 27.7795C102.854 27.8326 102.806 27.7795 102.758 27.7263C102.312 27.3602 101.779 27.115 101.21 27.0145C100.825 26.9436 100.429 26.95 100.047 27.0331C99.6642 27.1162 99.3022 27.2745 98.9825 27.4986C98.6622 27.7228 98.3899 28.0083 98.1823 28.3384C97.9746 28.6685 97.8347 29.0365 97.7717 29.421C97.6537 29.9377 97.6703 30.4758 97.8198 30.9843C97.9692 31.4928 98.2468 31.955 98.6259 32.327C98.9515 32.6435 99.346 32.8815 99.7789 33.0229C100.212 33.1632 100.673 33.2014 101.124 33.1344C101.631 33.0824 102.118 32.9153 102.55 32.6457C102.617 32.6118 102.673 32.558 102.71 32.4916C102.748 32.4259 102.763 32.3492 102.752 32.2738C102.752 31.9445 102.752 31.6151 102.752 31.2804C102.763 31.2531 102.763 31.2227 102.752 31.1954C102.747 31.1651 102.732 31.1372 102.71 31.1157C102.688 31.0965 102.663 31.0821 102.635 31.0732C102.607 31.0679 102.578 31.0679 102.55 31.0732C102.293 31.0732 102.016 31.0732 101.786 31.0732C101.734 31.0676 101.685 31.0452 101.647 31.0095C101.628 30.9918 101.613 30.9704 101.603 30.9466C101.593 30.9228 101.588 30.8971 101.589 30.8713C101.588 30.8202 101.607 30.7706 101.642 30.7332C101.679 30.6948 101.728 30.6705 101.781 30.6641C102.197 30.6641 102.619 30.6641 103.041 30.6641C103.069 30.659 103.098 30.659 103.126 30.6641C103.156 30.6698 103.183 30.6869 103.201 30.712C103.222 30.7322 103.237 30.7581 103.244 30.7863C103.252 30.8159 103.252 30.847 103.244 30.8766C103.244 31.4185 103.244 31.9604 103.244 32.5023C103.245 32.5594 103.232 32.6158 103.206 32.667C103.179 32.7147 103.143 32.7563 103.099 32.7891C102.559 33.22 101.9 33.4792 101.21 33.5329H101.076H100.542C100.27 33.4851 100.008 33.4638 99.7202 33.3948C98.9515 33.1705 98.2826 32.6918 97.824 32.0379C97.366 31.384 97.1455 30.594 97.2 29.7986C97.2539 29.0031 97.5795 28.2499 98.1219 27.6635C98.6648 27.0771 99.3924 26.6926 100.185 26.5735H100.238H101.162ZM108.246 33.4107H108.085H104.882C104.849 33.4213 104.814 33.4213 104.781 33.4107C104.749 33.4054 104.721 33.3883 104.701 33.3629C104.676 33.3413 104.658 33.3139 104.648 33.2832C104.642 33.2498 104.642 33.2157 104.648 33.1823C104.648 31.0891 104.648 28.9978 104.648 26.9082C104.64 26.8732 104.64 26.837 104.648 26.802C104.658 26.7697 104.676 26.7405 104.701 26.717C104.727 26.6939 104.758 26.6775 104.792 26.6691C104.825 26.6586 104.86 26.6586 104.893 26.6691C105.875 26.6691 106.852 26.6691 107.835 26.6691C107.979 26.6691 108.096 26.6691 108.101 26.871C108.107 27.0729 107.995 27.0782 107.845 27.0782H105.4C105.139 27.0782 105.139 27.0782 105.139 27.3491V29.0385C105.139 29.2988 105.139 29.2988 105.411 29.2988H107.386C107.415 29.3108 107.442 29.3269 107.466 29.3466C107.488 29.3687 107.502 29.3964 107.509 29.4263C107.517 29.4577 107.517 29.4906 107.509 29.5219C107.517 29.548 107.517 29.5757 107.509 29.6016C107.504 29.629 107.488 29.6535 107.466 29.6707C107.445 29.691 107.42 29.7057 107.391 29.7132H107.306C106.665 29.7132 106.025 29.7132 105.384 29.7132C105.349 29.7051 105.313 29.7051 105.277 29.7132C105.243 29.7228 105.212 29.7411 105.187 29.7662C105.161 29.7913 105.143 29.8225 105.133 29.8566C105.123 29.8913 105.123 29.9283 105.133 29.9629C105.133 30.9138 105.133 31.8595 105.133 32.8051C105.123 32.8379 105.123 32.8732 105.133 32.906C105.145 32.938 105.163 32.9671 105.187 32.991C105.211 33.015 105.24 33.0331 105.272 33.0441C105.305 33.0521 105.34 33.0521 105.374 33.0441H107.995H108.251V33.4001L108.246 33.4107ZM85.0718 26.7223C85.1818 26.6713 85.3051 26.6564 85.4241 26.6798H85.4775L85.5202 26.7116C85.5309 26.7264 85.54 26.7425 85.5469 26.7595C85.5523 26.7768 85.5523 26.7953 85.5469 26.8126C85.5469 26.887 85.5469 26.9613 85.5469 27.0304V32.7679C85.5469 33.0335 85.5469 33.0335 85.8085 33.0335H88.1093C88.1392 33.0257 88.1702 33.0257 88.2001 33.0335C88.2278 33.0443 88.2535 33.0606 88.2748 33.0813C88.2962 33.1012 88.3111 33.1272 88.3175 33.1557C88.3229 33.1838 88.3229 33.2127 88.3175 33.2407C88.3175 33.4054 88.2268 33.4213 88.0986 33.4213H85.6377H85.0611V26.7223H85.0718ZM93.8427 31.5035C93.3783 31.5035 92.9085 31.5035 92.4441 31.5035C92.3629 31.4931 92.2807 31.514 92.2145 31.562C92.1803 31.583 92.1504 31.6109 92.1275 31.6438C92.1045 31.6767 92.0891 31.7139 92.0811 31.7532C91.8782 32.2526 91.6593 32.7413 91.4458 33.2354C91.4004 33.3205 91.3241 33.3852 91.2323 33.416C91.1404 33.448 91.0406 33.448 90.9493 33.416C90.8479 33.3576 90.9493 33.2832 90.9493 33.2248L91.67 31.546L93.6719 26.871C93.7146 26.7701 93.7199 26.6054 93.8801 26.6107C93.9335 26.6281 93.9799 26.6615 94.0135 26.7063C94.0466 26.753 94.0653 26.8085 94.0669 26.8657C94.9531 28.9588 95.8425 31.052 96.7361 33.1451C96.7681 33.2248 96.9069 33.331 96.7361 33.4107C96.6539 33.4427 96.5621 33.4427 96.4798 33.4107C96.3939 33.3894 96.3192 33.3362 96.2717 33.262C96.1329 32.9538 96.0047 32.6404 95.8713 32.3323C95.7752 32.1091 95.6738 31.886 95.583 31.6576C95.5675 31.6034 95.5334 31.5564 95.4869 31.5248C95.4399 31.4935 95.3823 31.482 95.3268 31.4929H93.8427V31.5035ZM93.8427 27.5404C93.6132 28.0716 93.3996 28.6029 93.1861 29.1341L92.4227 30.951C92.3907 31.0307 92.3373 31.121 92.4974 31.121H95.1666C95.3001 31.121 95.3108 31.0626 95.268 30.9563L95.0759 30.4995L93.8427 27.5404ZM109.623 26.6851C109.714 26.5576 109.794 26.6479 109.868 26.6851L112.137 28.417L113.456 29.421C113.504 29.4582 113.552 29.5432 113.621 29.506C113.639 29.4784 113.652 29.4478 113.659 29.4157C113.667 29.3826 113.667 29.348 113.659 29.3148C113.659 28.5126 113.659 27.721 113.659 26.9135C113.659 26.7541 113.659 26.6532 113.883 26.6532C114.107 26.6532 114.123 26.7488 114.123 26.9241C114.123 28.996 114.123 31.0697 114.123 33.1451C114.136 33.1902 114.136 33.2382 114.123 33.2832C114.105 33.3276 114.073 33.3649 114.032 33.3895C113.993 33.4153 113.946 33.4282 113.899 33.4266C113.849 33.4255 113.801 33.4108 113.76 33.3841C113.653 33.3416 113.691 33.2407 113.691 33.161C113.691 32.2791 113.691 31.3973 113.691 30.5048C113.7 30.3855 113.676 30.2659 113.621 30.1595C113.572 30.0493 113.49 29.9566 113.386 29.8938C112.356 29.1341 111.336 28.3532 110.312 27.5776C110.263 27.5232 110.2 27.4843 110.13 27.466C110.111 27.5357 110.111 27.6089 110.13 27.6785V32.991C110.13 33.4373 110.13 33.4373 109.676 33.3895V26.6798L109.623 26.6851ZM118.586 33.5648C118.094 33.5315 117.613 33.4015 117.171 33.1823C116.651 32.9173 116.208 32.524 115.885 32.0401C115.573 31.5629 115.389 31.0142 115.351 30.4463C115.287 29.9989 115.313 29.5432 115.427 29.1057C115.541 28.6682 115.741 28.2576 116.016 27.8974C116.29 27.5374 116.634 27.235 117.026 27.0077C117.418 26.7805 117.852 26.6329 118.303 26.5735H118.399H119.323C119.984 26.6689 120.611 26.9304 121.143 27.3332C121.357 27.4979 121.351 27.4979 121.202 27.6998C121.052 27.9016 121.042 27.8007 120.945 27.6998C120.542 27.3717 120.066 27.1424 119.558 27.0304C119.146 26.9296 118.718 26.9187 118.303 26.9985C117.679 27.1147 117.109 27.4256 116.675 27.8861C116.242 28.3465 115.966 28.9325 115.89 29.5591C115.777 30.1779 115.859 30.8162 116.125 31.3866C116.39 31.9581 116.829 32.4321 117.379 32.7413C117.833 33.0013 118.345 33.142 118.868 33.1504C119.391 33.1588 119.908 33.0345 120.369 32.7891C120.597 32.6951 120.81 32.566 120.999 32.4066C121.164 32.2632 121.234 32.3694 121.335 32.481C121.437 32.5926 121.373 32.6723 121.276 32.752C120.706 33.2081 120.01 33.4789 119.28 33.5276C119.227 33.5221 119.173 33.5221 119.12 33.5276L118.586 33.5648ZM126.828 26.7648C126.54 27.1738 126.246 27.5829 125.958 27.9973C125.558 28.5763 125.163 29.1607 124.757 29.7345C124.676 29.8494 124.635 29.9874 124.64 30.1276C124.64 31.1423 124.64 32.1676 124.64 33.1876C124.64 33.262 124.677 33.3629 124.581 33.4001C124.467 33.4425 124.342 33.4425 124.229 33.4001C124.198 33.3735 124.175 33.3383 124.165 33.2991C124.154 33.2609 124.154 33.2206 124.165 33.1823C124.165 32.1941 124.165 31.206 124.165 30.2232C124.169 30.0181 124.107 29.8168 123.988 29.6495C123.364 28.741 122.75 27.8273 122.131 26.9135C122.103 26.8905 122.082 26.862 122.067 26.8299C122.053 26.7978 122.045 26.7629 122.045 26.7276C122.083 26.6479 122.179 26.6904 122.248 26.6798C122.339 26.6648 122.433 26.6797 122.515 26.7223C122.597 26.7631 122.663 26.8306 122.702 26.9135C123.236 27.7157 123.769 28.5073 124.303 29.3041C124.389 29.4316 124.431 29.4316 124.517 29.3041C125.0   51 28.5498 125.585 27.806 126.065 27.0357C126.126 26.9016 126.233 26.793 126.367 26.729C126.501 26.6649 126.652 26.6494 126.796 26.6851V26.7648H126.828Z" fill="#D8402B"/>
    </symbol>
    <symbol id="arrow-top" viewBox="0 0 30 34">
        <path d="M16.4142 0.585785C15.6332 -0.195263 14.3668 -0.195263 13.5858 0.585785L0.857863 13.3137C0.0768145 14.0948 0.0768146 15.3611 0.857863 16.1421C1.63891 16.9232 2.90524 16.9232 3.68629 16.1421L15 4.82843L26.3137 16.1421C27.0948 16.9232 28.3611 16.9232 29.1421 16.1421C29.9232 15.3611 29.9232 14.0948 29.1421 13.3137L16.4142 0.585785ZM17 34L17 2L13 2L13 34L17 34Z"/>
    </symbol>
    <symbol id="success" viewBox="0 0 27 19">
        <path d="M2.5 8.13636L10.4412 15.5L25 2" stroke="white" stroke-width="4" stroke-linecap="round"/>
    </symbol>
</svg>